<?xml version="1.0" encoding="UTF-8"?>
<svg version="1.1" xmlns="http://www.w3.org/2000/svg" width="500" height="500">
<path d="M0 0 C51.84632517 0 51.84632517 0 62.04296875 8.75390625 C71.26086474 18.48281567 72.15848667 29.95925385 72.09765625 42.7421875 C72.0962413 43.86569611 72.09482635 44.98920471 72.09336853 46.14675903 C72.08778664 49.72286683 72.07523741 53.29891123 72.0625 56.875 C72.05748266 59.30468659 72.05292016 61.73437417 72.04882812 64.1640625 C72.03867554 70.10941888 72.01909645 76.05463875 72 82 C64.41 82 56.82 82 49 82 C48.96261719 78.47183594 48.92523438 74.94367188 48.88671875 71.30859375 C48.84046632 67.87973949 48.78924604 64.45099278 48.73754883 61.0222168 C48.70435885 58.64500501 48.67630859 56.26771554 48.65356445 53.89038086 C48.61991014 50.46694942 48.56758699 47.04422604 48.51171875 43.62109375 C48.50532883 42.56353378 48.4989389 41.50597382 48.49235535 40.41636658 C48.37637638 34.55413276 47.96369792 30.12178491 45 25 C37.5991693 20.67121223 32.21436641 22 23 22 C23 41.8 23 61.6 23 82 C15.41 82 7.82 82 0 82 C0 54.94 0 27.88 0 0 Z " fill="#00205B" transform="translate(65,209)"/>
<path d="M0 0 C-1.51896368 4.43170173 -3.92639809 8.03024076 -6.625 11.8125 C-7.04523438 12.40998047 -7.46546875 13.00746094 -7.8984375 13.62304688 C-8.92779728 15.08520565 -9.9632823 16.54304899 -11 18 C-12.11375 17.649375 -13.2275 17.29875 -14.375 16.9375 C-20.71508999 15.37496009 -26.52086996 15.76043498 -32.375 18.6875 C-37.11058456 22.85932449 -39.65091106 27.05260968 -40.203125 33.296875 C-40.328576 39.86214397 -39.94636735 45.65185528 -35.453125 50.7578125 C-30.9213068 54.90863714 -26.81277432 56.79164635 -20.625 57.25 C-17.77062708 57.05314669 -15.50288512 56.69640482 -12.7734375 55.984375 C-10.90558594 55.49710937 -10.90558594 55.49710937 -9 55 C-7.34949862 57.26756723 -5.70449972 59.53878961 -4.0625 61.8125 C-3.59392578 62.45509766 -3.12535156 63.09769531 -2.64257812 63.75976562 C-2.19462891 64.38173828 -1.74667969 65.00371094 -1.28515625 65.64453125 C-0.87144775 66.21534424 -0.45773926 66.78615723 -0.03149414 67.37426758 C1 69 1 69 2 72 C0.25197854 72.81674796 -1.49850189 73.62823451 -3.25 74.4375 C-4.22453125 74.88996094 -5.1990625 75.34242188 -6.203125 75.80859375 C-16.35837428 80.13450301 -30.25157166 79.30928928 -40.38671875 75.328125 C-50.94863266 69.96033617 -58.92052758 61.18592625 -62.6875 49.94921875 C-65.91041323 37.70662474 -64.59103281 24.9327359 -58.234375 13.94921875 C-44.81615097 -5.57059928 -21.07735636 -10.53867818 0 0 Z " fill="#00205B" transform="translate(214,214)"/>
<path d="M0 0 C0.73855225 0.00322266 1.47710449 0.00644531 2.23803711 0.00976562 C8.5933381 0.17029146 14.01195959 1.66142861 19.75 4.4375 C19.75 9.28010662 18.47729126 10.76701881 15.75 14.6875 C15.0075 15.76515625 14.265 16.8428125 13.5 17.953125 C12.9225 18.77296875 12.345 19.5928125 11.75 20.4375 C10.39261719 20.19580078 10.39261719 20.19580078 9.0078125 19.94921875 C4.35859492 19.21894596 -0.11609067 18.78091251 -4.6875 20.1875 C-6.36961838 21.36448494 -6.36961838 21.36448494 -7.25 23.3125 C-7.46988918 25.57511038 -7.46988918 25.57511038 -5.703125 27.390625 C-2.71900902 29.88055617 0.38951918 31.03816001 4 32.3125 C12.43825811 35.50035416 19.41770018 39.10615419 23.75 47.4375 C26.39116631 54.98368946 26.40099282 62.28827485 23.125 69.6875 C19.4846871 76.13605428 13.78183698 80.23153333 6.8828125 82.7421875 C-6.07134865 85.61730057 -17.57831886 83.35328359 -29.25 77.4375 C-27.56029911 73.77351701 -25.37699789 70.52917428 -23.125 67.1875 C-22.40054688 66.10984375 -21.67609375 65.0321875 -20.9296875 63.921875 C-20.37539062 63.10203125 -19.82109375 62.2821875 -19.25 61.4375 C-18.693125 61.581875 -18.13625 61.72625 -17.5625 61.875 C-11.65057303 63.31303629 -5.6026508 64.77856032 0.25 62.4375 C0.745 62.1075 1.24 61.7775 1.75 61.4375 C2.25169415 58.60676564 2.25169415 58.60676564 1.75 55.4375 C-2.28210395 52.27506553 -6.41910213 50.47894229 -11.1875 48.6875 C-18.46866562 45.72120524 -23.04047822 42.23642625 -26.36328125 35.01953125 C-28.90961426 27.78435595 -28.71954379 21.35117307 -25.6875 14.3125 C-20.32026449 4.56980076 -10.86164012 -0.14826491 0 0 Z " fill="#00205C" transform="translate(258.25,208.5625)"/>
<path d="M0 0 C0.98226562 0.00410889 1.96453125 0.00821777 2.9765625 0.01245117 C4.04390625 0.01438477 5.11125 0.01631836 6.2109375 0.01831055 C7.32984375 0.03055664 8.44875 0.04280273 9.6015625 0.05541992 C11.27992188 0.05638672 11.27992188 0.05638672 12.9921875 0.05737305 C21.32099931 0.10263833 21.32099931 0.10263833 23.6015625 1.24291992 C24.05537542 5.79725678 22.95160876 7.6191691 20.1015625 11.11791992 C15.46277658 16.9963238 11.17051739 23.08311842 6.9140625 29.24291992 C5.51696789 31.25987527 4.11983223 33.27680219 2.72265625 35.29370117 C2.03155762 36.29224121 1.34045898 37.29078125 0.62841797 38.31958008 C-2.97083445 43.51079285 -6.59109929 48.68736266 -10.22900391 53.8515625 C-13.26819958 58.17094644 -16.26304152 62.51421799 -19.20703125 66.89916992 C-20.1494165 68.28712769 -20.1494165 68.28712769 -21.11083984 69.703125 C-22.31713436 71.48136676 -23.51207696 73.26737854 -24.69384766 75.06201172 C-25.23702637 75.85776611 -25.78020508 76.65352051 -26.33984375 77.47338867 C-26.81107666 78.17874756 -27.28230957 78.88410645 -27.76782227 79.61083984 C-29.8574852 81.70238 -31.5107485 81.91222655 -34.3984375 82.24291992 C-36.80915263 77.03092687 -39.059641 71.7545783 -41.2109375 66.43041992 C-41.65050781 65.35147461 -42.09007812 64.2725293 -42.54296875 63.16088867 C-43.46107237 60.02927494 -43.45182486 59.21971967 -42.3984375 56.24291992 C-41.42371501 54.63185463 -40.37940674 53.06211264 -39.29296875 51.52416992 C-38.64585937 50.60152344 -37.99875 49.67887695 -37.33203125 48.72827148 C-36.63207031 47.74310547 -35.93210937 46.75793945 -35.2109375 45.74291992 C-34.49421875 44.72423828 -33.7775 43.70555664 -33.0390625 42.65600586 C-31.55518232 40.54729959 -30.0689928 38.4402166 -28.58056641 36.3347168 C-25.9294966 32.57849079 -23.30014162 28.80742716 -20.67163086 25.03540039 C-3.45535457 0.3499672 -3.45535457 0.3499672 0 0 Z " fill="#00A7E1" transform="translate(411.3984375,208.757080078125)"/>
<path d="M0 0 C2.69953617 1.34351055 3.06181294 2.69236953 4.12426758 5.48535156 C4.47682617 6.40703125 4.82938477 7.32871094 5.19262695 8.27832031 C5.54518555 9.24898437 5.89774414 10.21964844 6.26098633 11.21972656 C6.81882812 12.65251953 6.81882812 12.65251953 7.38793945 14.11425781 C10.42040474 22.23471419 10.42040474 22.23471419 8.94848633 26.96972656 C7.81616211 28.93579102 7.81616211 28.93579102 6.39379883 30.83300781 C5.86729736 31.54634277 5.3407959 32.25967773 4.79833984 32.99462891 C4.22913818 33.74953613 3.65993652 34.50444336 3.07348633 35.28222656 C1.87535334 36.90480436 0.67876404 38.52852307 -0.51635742 40.15332031 C-1.11561035 40.96526855 -1.71486328 41.7772168 -2.33227539 42.61376953 C-4.78706986 45.97769549 -7.14600894 49.40239316 -9.48901367 52.84472656 C-13.84576902 59.22647569 -18.24786948 65.57512622 -22.67651367 71.90722656 C-23.29324951 72.79071777 -23.90998535 73.67420898 -24.54541016 74.58447266 C-25.11718994 75.40125488 -25.68896973 76.21803711 -26.27807617 77.05957031 C-26.78935059 77.79038818 -27.300625 78.52120605 -27.82739258 79.27416992 C-29.05151367 80.96972656 -29.05151367 80.96972656 -30.05151367 81.96972656 C-31.97818875 82.05720864 -33.90803228 82.0766999 -35.83666992 82.06738281 C-37.59140625 82.06254883 -37.59140625 82.06254883 -39.3815918 82.05761719 C-40.61329102 82.04923828 -41.84499023 82.04085937 -43.11401367 82.03222656 C-44.96736328 82.02545898 -44.96736328 82.02545898 -46.8581543 82.01855469 C-49.92265484 82.00672264 -52.98706089 81.99023829 -56.05151367 81.96972656 C-57.28737713 77.51928049 -57.28737713 77.51928049 -56.25390625 75.11132812 C-55.82231201 74.53350586 -55.39071777 73.95568359 -54.94604492 73.36035156 C-54.22215576 72.36588013 -54.22215576 72.36588013 -53.48364258 71.35131836 C-52.94916504 70.64789307 -52.4146875 69.94446777 -51.86401367 69.21972656 C-50.74254858 67.69005082 -49.621465 66.16009532 -48.50073242 64.62988281 C-47.63520752 63.46416748 -47.63520752 63.46416748 -46.75219727 62.27490234 C-44.17030443 58.77529967 -41.67444693 55.21698144 -39.17651367 51.65722656 C-38.17671366 50.24041875 -37.17670991 48.82375469 -36.17651367 47.40722656 C-32.83339532 42.66407134 -29.50383744 37.9114701 -26.17651367 33.15722656 C-25.31086792 31.92117676 -25.31086792 31.92117676 -24.42773438 30.66015625 C-21.32874505 26.23290603 -18.23796143 21.80015677 -15.15698242 17.36035156 C-14.2044458 15.99100464 -14.2044458 15.99100464 -13.23266602 14.59399414 C-12.01302047 12.84037521 -10.79578494 11.08507694 -9.58129883 9.32788086 C-9.03135254 8.53808838 -8.48140625 7.7482959 -7.91479492 6.93457031 C-7.19223511 5.89224243 -7.19223511 5.89224243 -6.45507812 4.82885742 C-2.77854215 -0.04100193 -2.77854215 -0.04100193 0 0 Z " fill="#00A7E1" transform="translate(354.051513671875,209.0302734375)"/>
</svg>
